G04 #@! TF.GenerationSoftware,KiCad,Pcbnew,(5.1.4)-1*
G04 #@! TF.CreationDate,2021-11-22T21:05:38+08:00*
G04 #@! TF.ProjectId,CAN-DB9,43414e2d-4442-4392-9e6b-696361645f70,rev?*
G04 #@! TF.SameCoordinates,Original*
G04 #@! TF.FileFunction,Legend,Top*
G04 #@! TF.FilePolarity,Positive*
%FSLAX46Y46*%
G04 Gerber Fmt 4.6, Leading zero omitted, Abs format (unit mm)*
G04 Created by KiCad (PCBNEW (5.1.4)-1) date 2021-11-22 21:05:38*
%MOMM*%
%LPD*%
G04 APERTURE LIST*
%ADD10C,0.200000*%
%ADD11C,0.150000*%
%ADD12C,0.120000*%
%ADD13C,0.152400*%
%ADD14C,0.203200*%
%ADD15C,0.127000*%
G04 APERTURE END LIST*
D10*
X128222428Y-82339571D02*
X128222428Y-80839571D01*
X128222428Y-81553857D02*
X129079571Y-81553857D01*
X129079571Y-82339571D02*
X129079571Y-80839571D01*
X129115285Y-75227571D02*
X128401000Y-75227571D01*
X128401000Y-73727571D01*
X123071000Y-74489571D02*
X124071000Y-74489571D01*
X123428142Y-75989571D01*
X107902428Y-74632428D02*
X107973857Y-74561000D01*
X108116714Y-74489571D01*
X108473857Y-74489571D01*
X108616714Y-74561000D01*
X108688142Y-74632428D01*
X108759571Y-74775285D01*
X108759571Y-74918142D01*
X108688142Y-75132428D01*
X107831000Y-75989571D01*
X108759571Y-75989571D01*
X116216857Y-75323000D02*
X116074000Y-75251571D01*
X115859714Y-75251571D01*
X115645428Y-75323000D01*
X115502571Y-75465857D01*
X115431142Y-75608714D01*
X115359714Y-75894428D01*
X115359714Y-76108714D01*
X115431142Y-76394428D01*
X115502571Y-76537285D01*
X115645428Y-76680142D01*
X115859714Y-76751571D01*
X116002571Y-76751571D01*
X116216857Y-76680142D01*
X116288285Y-76608714D01*
X116288285Y-76108714D01*
X116002571Y-76108714D01*
D11*
X106878380Y-85502666D02*
X106878380Y-86074095D01*
X106878380Y-85788380D02*
X105878380Y-85788380D01*
X106021238Y-85883619D01*
X106116476Y-85978857D01*
X106164095Y-86074095D01*
X105973619Y-85121714D02*
X105926000Y-85074095D01*
X105878380Y-84978857D01*
X105878380Y-84740761D01*
X105926000Y-84645523D01*
X105973619Y-84597904D01*
X106068857Y-84550285D01*
X106164095Y-84550285D01*
X106306952Y-84597904D01*
X106878380Y-85169333D01*
X106878380Y-84550285D01*
X105878380Y-83931238D02*
X105878380Y-83836000D01*
X105926000Y-83740761D01*
X105973619Y-83693142D01*
X106068857Y-83645523D01*
X106259333Y-83597904D01*
X106497428Y-83597904D01*
X106687904Y-83645523D01*
X106783142Y-83693142D01*
X106830761Y-83740761D01*
X106878380Y-83836000D01*
X106878380Y-83931238D01*
X106830761Y-84026476D01*
X106783142Y-84074095D01*
X106687904Y-84121714D01*
X106497428Y-84169333D01*
X106259333Y-84169333D01*
X106068857Y-84121714D01*
X105973619Y-84074095D01*
X105926000Y-84026476D01*
X105878380Y-83931238D01*
X105878380Y-77708047D02*
X105878380Y-77517571D01*
X105926000Y-77422333D01*
X106021238Y-77327095D01*
X106211714Y-77279476D01*
X106545047Y-77279476D01*
X106735523Y-77327095D01*
X106830761Y-77422333D01*
X106878380Y-77517571D01*
X106878380Y-77708047D01*
X106830761Y-77803285D01*
X106735523Y-77898523D01*
X106545047Y-77946142D01*
X106211714Y-77946142D01*
X106021238Y-77898523D01*
X105926000Y-77803285D01*
X105878380Y-77708047D01*
X106878380Y-76850904D02*
X105878380Y-76850904D01*
X106878380Y-76279476D01*
X105878380Y-76279476D01*
D10*
X124233714Y-81760000D02*
X124305142Y-81831428D01*
X124376571Y-82045714D01*
X124376571Y-82188571D01*
X124305142Y-82402857D01*
X124162285Y-82545714D01*
X124019428Y-82617142D01*
X123733714Y-82688571D01*
X123519428Y-82688571D01*
X123233714Y-82617142D01*
X123090857Y-82545714D01*
X122948000Y-82402857D01*
X122876571Y-82188571D01*
X122876571Y-82045714D01*
X122948000Y-81831428D01*
X123019428Y-81760000D01*
X123948000Y-81188571D02*
X123948000Y-80474285D01*
X124376571Y-81331428D02*
X122876571Y-80831428D01*
X124376571Y-80331428D01*
X124376571Y-79831428D02*
X122876571Y-79831428D01*
X124376571Y-78974285D01*
X122876571Y-78974285D01*
X124376571Y-78260000D02*
X122876571Y-78260000D01*
X123590857Y-78260000D02*
X123590857Y-77402857D01*
X124376571Y-77402857D02*
X122876571Y-77402857D01*
X108485714Y-81581428D02*
X108557142Y-81652857D01*
X108628571Y-81867142D01*
X108628571Y-82010000D01*
X108557142Y-82224285D01*
X108414285Y-82367142D01*
X108271428Y-82438571D01*
X107985714Y-82510000D01*
X107771428Y-82510000D01*
X107485714Y-82438571D01*
X107342857Y-82367142D01*
X107200000Y-82224285D01*
X107128571Y-82010000D01*
X107128571Y-81867142D01*
X107200000Y-81652857D01*
X107271428Y-81581428D01*
X108200000Y-81010000D02*
X108200000Y-80295714D01*
X108628571Y-81152857D02*
X107128571Y-80652857D01*
X108628571Y-80152857D01*
X108628571Y-79652857D02*
X107128571Y-79652857D01*
X108628571Y-78795714D01*
X107128571Y-78795714D01*
X108628571Y-77367142D02*
X108628571Y-78081428D01*
X107128571Y-78081428D01*
D12*
X102489000Y-81829667D02*
X103759000Y-81829667D01*
X103689000Y-83183000D02*
X103689000Y-81829667D01*
X103569000Y-83183000D02*
X103569000Y-81829667D01*
X103449000Y-83183000D02*
X103449000Y-81829667D01*
X103329000Y-83183000D02*
X103329000Y-81829667D01*
X103209000Y-83183000D02*
X103209000Y-81829667D01*
X103089000Y-83183000D02*
X103089000Y-81829667D01*
X102969000Y-83183000D02*
X102969000Y-81829667D01*
X102849000Y-83183000D02*
X102849000Y-81829667D01*
X102729000Y-83183000D02*
X102729000Y-81829667D01*
X102609000Y-83183000D02*
X102609000Y-81829667D01*
X102489000Y-79123000D02*
X102489000Y-83183000D01*
X103759000Y-79123000D02*
X102489000Y-79123000D01*
X103759000Y-83183000D02*
X103759000Y-79123000D01*
X102489000Y-83183000D02*
X103759000Y-83183000D01*
X100464000Y-86343000D02*
X101847000Y-86343000D01*
X100464000Y-86343000D02*
X100464000Y-84959000D01*
X100704000Y-76203000D02*
X105544000Y-76203000D01*
X100704000Y-86103000D02*
X105544000Y-86103000D01*
X105544000Y-86103000D02*
X105544000Y-76203000D01*
X100704000Y-86103000D02*
X100704000Y-76203000D01*
D13*
X105664000Y-74295000D02*
X105664000Y-74041000D01*
X104267000Y-75184000D02*
X107061000Y-75184000D01*
X105537000Y-74295000D02*
X105791000Y-74295000D01*
X105791000Y-74803000D02*
X105791000Y-74295000D01*
X105537000Y-74803000D02*
X105537000Y-74295000D01*
X105537000Y-74803000D02*
X105791000Y-74803000D01*
X104267000Y-73914000D02*
X107061000Y-73914000D01*
X105664000Y-75057000D02*
X105664000Y-74803000D01*
X102616000Y-74295000D02*
X102616000Y-74041000D01*
X101219000Y-75184000D02*
X104013000Y-75184000D01*
X102489000Y-74295000D02*
X102743000Y-74295000D01*
X102743000Y-74803000D02*
X102743000Y-74295000D01*
X102489000Y-74803000D02*
X102489000Y-74295000D01*
X102489000Y-74803000D02*
X102743000Y-74803000D01*
X101219000Y-73914000D02*
X104013000Y-73914000D01*
X102616000Y-75057000D02*
X102616000Y-74803000D01*
D14*
X131229000Y-59949000D02*
X100419000Y-59949000D01*
X131229000Y-53949000D02*
X100419000Y-53949000D01*
X131229000Y-53949000D02*
X131229000Y-71949000D01*
X131229000Y-71969000D02*
X100419000Y-71969000D01*
X100419000Y-53949000D02*
X100419000Y-71969000D01*
D12*
X111714000Y-77156000D02*
X112314000Y-77156000D01*
X112014000Y-77756000D02*
X111714000Y-77156000D01*
X112314000Y-77156000D02*
X112014000Y-77756000D01*
X109304000Y-84556000D02*
X122344000Y-84556000D01*
X116874000Y-78446000D02*
X118584000Y-78446000D01*
X113064000Y-78446000D02*
X114774000Y-78446000D01*
X122344000Y-78446000D02*
X120684000Y-78446000D01*
X109304000Y-78446000D02*
X110964000Y-78446000D01*
X122344000Y-87866000D02*
X122344000Y-78446000D01*
X109304000Y-87866000D02*
X122344000Y-87866000D01*
X109304000Y-78446000D02*
X109304000Y-87866000D01*
D11*
X101917666Y-87526761D02*
X102060523Y-87574380D01*
X102298619Y-87574380D01*
X102393857Y-87526761D01*
X102441476Y-87479142D01*
X102489095Y-87383904D01*
X102489095Y-87288666D01*
X102441476Y-87193428D01*
X102393857Y-87145809D01*
X102298619Y-87098190D01*
X102108142Y-87050571D01*
X102012904Y-87002952D01*
X101965285Y-86955333D01*
X101917666Y-86860095D01*
X101917666Y-86764857D01*
X101965285Y-86669619D01*
X102012904Y-86622000D01*
X102108142Y-86574380D01*
X102346238Y-86574380D01*
X102489095Y-86622000D01*
X102822428Y-86574380D02*
X103060523Y-87574380D01*
X103251000Y-86860095D01*
X103441476Y-87574380D01*
X103679571Y-86574380D01*
X104584333Y-87574380D02*
X104012904Y-87574380D01*
X104298619Y-87574380D02*
X104298619Y-86574380D01*
X104203380Y-86717238D01*
X104108142Y-86812476D01*
X104012904Y-86860095D01*
D15*
X104785333Y-73640904D02*
X104552000Y-73259952D01*
X104385333Y-73640904D02*
X104385333Y-72840904D01*
X104652000Y-72840904D01*
X104718666Y-72879000D01*
X104752000Y-72917095D01*
X104785333Y-72993285D01*
X104785333Y-73107571D01*
X104752000Y-73183761D01*
X104718666Y-73221857D01*
X104652000Y-73259952D01*
X104385333Y-73259952D01*
X105052000Y-72917095D02*
X105085333Y-72879000D01*
X105152000Y-72840904D01*
X105318666Y-72840904D01*
X105385333Y-72879000D01*
X105418666Y-72917095D01*
X105452000Y-72993285D01*
X105452000Y-73069476D01*
X105418666Y-73183761D01*
X105018666Y-73640904D01*
X105452000Y-73640904D01*
X102118333Y-73640904D02*
X101885000Y-73259952D01*
X101718333Y-73640904D02*
X101718333Y-72840904D01*
X101985000Y-72840904D01*
X102051666Y-72879000D01*
X102085000Y-72917095D01*
X102118333Y-72993285D01*
X102118333Y-73107571D01*
X102085000Y-73183761D01*
X102051666Y-73221857D01*
X101985000Y-73259952D01*
X101718333Y-73259952D01*
X102785000Y-73640904D02*
X102385000Y-73640904D01*
X102585000Y-73640904D02*
X102585000Y-72840904D01*
X102518333Y-72955190D01*
X102451666Y-73031380D01*
X102385000Y-73069476D01*
D13*
X125065714Y-85288380D02*
X125065714Y-84288380D01*
X125408571Y-84288380D01*
X125494285Y-84336000D01*
X125537142Y-84383619D01*
X125580000Y-84478857D01*
X125580000Y-84621714D01*
X125537142Y-84716952D01*
X125494285Y-84764571D01*
X125408571Y-84812190D01*
X125065714Y-84812190D01*
X125922857Y-84383619D02*
X125965714Y-84336000D01*
X126051428Y-84288380D01*
X126265714Y-84288380D01*
X126351428Y-84336000D01*
X126394285Y-84383619D01*
X126437142Y-84478857D01*
X126437142Y-84574095D01*
X126394285Y-84716952D01*
X125880000Y-85288380D01*
X126437142Y-85288380D01*
X125065714Y-78176380D02*
X125065714Y-77176380D01*
X125408571Y-77176380D01*
X125494285Y-77224000D01*
X125537142Y-77271619D01*
X125580000Y-77366857D01*
X125580000Y-77509714D01*
X125537142Y-77604952D01*
X125494285Y-77652571D01*
X125408571Y-77700190D01*
X125065714Y-77700190D01*
X126437142Y-78176380D02*
X125922857Y-78176380D01*
X126180000Y-78176380D02*
X126180000Y-77176380D01*
X126094285Y-77319238D01*
X126008571Y-77414476D01*
X125922857Y-77462095D01*
D11*
X116252666Y-72350380D02*
X116252666Y-73064666D01*
X116205047Y-73207523D01*
X116109809Y-73302761D01*
X115966952Y-73350380D01*
X115871714Y-73350380D01*
X116681238Y-72445619D02*
X116728857Y-72398000D01*
X116824095Y-72350380D01*
X117062190Y-72350380D01*
X117157428Y-72398000D01*
X117205047Y-72445619D01*
X117252666Y-72540857D01*
X117252666Y-72636095D01*
X117205047Y-72778952D01*
X116633619Y-73350380D01*
X117252666Y-73350380D01*
D13*
X109852571Y-68516619D02*
X110024000Y-68516619D01*
X110109714Y-68469000D01*
X110152571Y-68421380D01*
X110238285Y-68278523D01*
X110281142Y-68088047D01*
X110281142Y-67707095D01*
X110238285Y-67611857D01*
X110195428Y-67564238D01*
X110109714Y-67516619D01*
X109938285Y-67516619D01*
X109852571Y-67564238D01*
X109809714Y-67611857D01*
X109766857Y-67707095D01*
X109766857Y-67945190D01*
X109809714Y-68040428D01*
X109852571Y-68088047D01*
X109938285Y-68135666D01*
X110109714Y-68135666D01*
X110195428Y-68088047D01*
X110238285Y-68040428D01*
X110281142Y-67945190D01*
X122195428Y-67616619D02*
X122024000Y-67616619D01*
X121938285Y-67664238D01*
X121895428Y-67711857D01*
X121809714Y-67854714D01*
X121766857Y-68045190D01*
X121766857Y-68426142D01*
X121809714Y-68521380D01*
X121852571Y-68569000D01*
X121938285Y-68616619D01*
X122109714Y-68616619D01*
X122195428Y-68569000D01*
X122238285Y-68521380D01*
X122281142Y-68426142D01*
X122281142Y-68188047D01*
X122238285Y-68092809D01*
X122195428Y-68045190D01*
X122109714Y-67997571D01*
X121938285Y-67997571D01*
X121852571Y-68045190D01*
X121809714Y-68092809D01*
X121766857Y-68188047D01*
X122909714Y-71416619D02*
X123338285Y-71416619D01*
X123381142Y-70940428D01*
X123338285Y-70988047D01*
X123252571Y-71035666D01*
X123038285Y-71035666D01*
X122952571Y-70988047D01*
X122909714Y-70940428D01*
X122866857Y-70845190D01*
X122866857Y-70607095D01*
X122909714Y-70511857D01*
X122952571Y-70464238D01*
X123038285Y-70416619D01*
X123252571Y-70416619D01*
X123338285Y-70464238D01*
X123381142Y-70511857D01*
X108266857Y-70416619D02*
X108781142Y-70416619D01*
X108524000Y-70416619D02*
X108524000Y-71416619D01*
X108609714Y-71273761D01*
X108695428Y-71178523D01*
X108781142Y-71130904D01*
D11*
X122896380Y-87328333D02*
X123610666Y-87328333D01*
X123753523Y-87375952D01*
X123848761Y-87471190D01*
X123896380Y-87614047D01*
X123896380Y-87709285D01*
X123896380Y-86328333D02*
X123896380Y-86899761D01*
X123896380Y-86614047D02*
X122896380Y-86614047D01*
X123039238Y-86709285D01*
X123134476Y-86804523D01*
X123182095Y-86899761D01*
M02*
