G04 #@! TF.GenerationSoftware,KiCad,Pcbnew,(5.1.4)-1*
G04 #@! TF.CreationDate,2021-11-22T21:05:38+08:00*
G04 #@! TF.ProjectId,CAN-DB9,43414e2d-4442-4392-9e6b-696361645f70,rev?*
G04 #@! TF.SameCoordinates,Original*
G04 #@! TF.FileFunction,Soldermask,Bot*
G04 #@! TF.FilePolarity,Negative*
%FSLAX46Y46*%
G04 Gerber Fmt 4.6, Leading zero omitted, Abs format (unit mm)*
G04 Created by KiCad (PCBNEW (5.1.4)-1) date 2021-11-22 21:05:38*
%MOMM*%
%LPD*%
G04 APERTURE LIST*
%ADD10C,0.010000*%
%ADD11C,0.100000*%
G04 APERTURE END LIST*
D10*
G36*
X110641906Y-61200877D02*
G01*
X110577210Y-61280954D01*
X110556706Y-61380499D01*
X110586595Y-61483584D01*
X110673079Y-61574280D01*
X110710309Y-61596342D01*
X110845353Y-61642704D01*
X110976494Y-61629347D01*
X111024128Y-61612413D01*
X111105643Y-61549390D01*
X111133865Y-61459476D01*
X111113984Y-61358754D01*
X111051190Y-61263306D01*
X110950671Y-61189213D01*
X110879069Y-61162847D01*
X110744593Y-61156198D01*
X110641906Y-61200877D01*
X110641906Y-61200877D01*
G37*
X110641906Y-61200877D02*
X110577210Y-61280954D01*
X110556706Y-61380499D01*
X110586595Y-61483584D01*
X110673079Y-61574280D01*
X110710309Y-61596342D01*
X110845353Y-61642704D01*
X110976494Y-61629347D01*
X111024128Y-61612413D01*
X111105643Y-61549390D01*
X111133865Y-61459476D01*
X111113984Y-61358754D01*
X111051190Y-61263306D01*
X110950671Y-61189213D01*
X110879069Y-61162847D01*
X110744593Y-61156198D01*
X110641906Y-61200877D01*
G36*
X109124395Y-61468000D02*
G01*
X108997575Y-61470224D01*
X108928924Y-61479692D01*
X108904105Y-61500591D01*
X108907059Y-61531499D01*
X108923163Y-61604790D01*
X108942240Y-61715815D01*
X108949910Y-61767357D01*
X108974240Y-61939714D01*
X108309568Y-61939714D01*
X108332524Y-62075785D01*
X108353765Y-62198765D01*
X108377316Y-62275944D01*
X108418543Y-62317953D01*
X108492812Y-62335421D01*
X108615488Y-62338979D01*
X108712801Y-62338857D01*
X109035283Y-62338857D01*
X109054479Y-62456785D01*
X109071470Y-62559253D01*
X109094622Y-62696552D01*
X109110551Y-62790021D01*
X109141224Y-63014592D01*
X109144826Y-63173411D01*
X109121291Y-63268088D01*
X109090032Y-63296546D01*
X109025134Y-63308057D01*
X108913488Y-63316028D01*
X108797523Y-63318571D01*
X108562410Y-63318571D01*
X108587400Y-63490928D01*
X108605181Y-63597902D01*
X108621859Y-63673186D01*
X108628050Y-63690499D01*
X108668984Y-63702730D01*
X108764893Y-63712098D01*
X108898195Y-63717161D01*
X108959070Y-63717657D01*
X109156884Y-63711162D01*
X109300016Y-63690143D01*
X109401428Y-63654157D01*
X109521567Y-63560649D01*
X109594984Y-63454502D01*
X109623815Y-63390235D01*
X109639879Y-63330376D01*
X109643429Y-63257613D01*
X109634717Y-63154634D01*
X109613995Y-63004127D01*
X109602644Y-62928359D01*
X109576412Y-62757415D01*
X109552111Y-62603899D01*
X109532946Y-62487801D01*
X109524134Y-62438642D01*
X109504519Y-62338857D01*
X109980185Y-62338857D01*
X109960559Y-62220928D01*
X109936987Y-62080662D01*
X109914239Y-61996857D01*
X109877740Y-61955057D01*
X109812910Y-61940806D01*
X109705174Y-61939647D01*
X109677000Y-61939714D01*
X109445954Y-61939714D01*
X109421624Y-61767357D01*
X109399781Y-61621387D01*
X109375442Y-61532754D01*
X109334420Y-61487168D01*
X109262529Y-61470342D01*
X109145583Y-61467988D01*
X109124395Y-61468000D01*
X109124395Y-61468000D01*
G37*
X109124395Y-61468000D02*
X108997575Y-61470224D01*
X108928924Y-61479692D01*
X108904105Y-61500591D01*
X108907059Y-61531499D01*
X108923163Y-61604790D01*
X108942240Y-61715815D01*
X108949910Y-61767357D01*
X108974240Y-61939714D01*
X108309568Y-61939714D01*
X108332524Y-62075785D01*
X108353765Y-62198765D01*
X108377316Y-62275944D01*
X108418543Y-62317953D01*
X108492812Y-62335421D01*
X108615488Y-62338979D01*
X108712801Y-62338857D01*
X109035283Y-62338857D01*
X109054479Y-62456785D01*
X109071470Y-62559253D01*
X109094622Y-62696552D01*
X109110551Y-62790021D01*
X109141224Y-63014592D01*
X109144826Y-63173411D01*
X109121291Y-63268088D01*
X109090032Y-63296546D01*
X109025134Y-63308057D01*
X108913488Y-63316028D01*
X108797523Y-63318571D01*
X108562410Y-63318571D01*
X108587400Y-63490928D01*
X108605181Y-63597902D01*
X108621859Y-63673186D01*
X108628050Y-63690499D01*
X108668984Y-63702730D01*
X108764893Y-63712098D01*
X108898195Y-63717161D01*
X108959070Y-63717657D01*
X109156884Y-63711162D01*
X109300016Y-63690143D01*
X109401428Y-63654157D01*
X109521567Y-63560649D01*
X109594984Y-63454502D01*
X109623815Y-63390235D01*
X109639879Y-63330376D01*
X109643429Y-63257613D01*
X109634717Y-63154634D01*
X109613995Y-63004127D01*
X109602644Y-62928359D01*
X109576412Y-62757415D01*
X109552111Y-62603899D01*
X109532946Y-62487801D01*
X109524134Y-62438642D01*
X109504519Y-62338857D01*
X109980185Y-62338857D01*
X109960559Y-62220928D01*
X109936987Y-62080662D01*
X109914239Y-61996857D01*
X109877740Y-61955057D01*
X109812910Y-61940806D01*
X109705174Y-61939647D01*
X109677000Y-61939714D01*
X109445954Y-61939714D01*
X109421624Y-61767357D01*
X109399781Y-61621387D01*
X109375442Y-61532754D01*
X109334420Y-61487168D01*
X109262529Y-61470342D01*
X109145583Y-61467988D01*
X109124395Y-61468000D01*
G36*
X110962715Y-61940036D02*
G01*
X110828086Y-61942275D01*
X110744094Y-61948336D01*
X110699774Y-61960125D01*
X110684159Y-61979549D01*
X110686282Y-62008512D01*
X110689210Y-62021357D01*
X110700376Y-62080463D01*
X110719638Y-62193879D01*
X110744682Y-62346890D01*
X110773197Y-62524782D01*
X110802870Y-62712841D01*
X110831390Y-62896352D01*
X110856443Y-63060600D01*
X110875718Y-63190870D01*
X110886903Y-63272449D01*
X110888771Y-63291357D01*
X110855737Y-63304730D01*
X110768412Y-63314441D01*
X110645053Y-63318543D01*
X110633498Y-63318571D01*
X110377854Y-63318571D01*
X110400810Y-63454642D01*
X110413971Y-63540754D01*
X110426727Y-63605822D01*
X110448384Y-63652770D01*
X110488249Y-63684523D01*
X110555630Y-63704007D01*
X110659835Y-63714146D01*
X110810169Y-63717864D01*
X111015941Y-63718088D01*
X111237946Y-63717714D01*
X112017288Y-63717714D01*
X111994333Y-63581642D01*
X111972356Y-63455515D01*
X111947808Y-63377844D01*
X111904689Y-63336921D01*
X111827001Y-63321037D01*
X111698746Y-63318482D01*
X111634878Y-63318571D01*
X111333218Y-63318571D01*
X111272777Y-62910357D01*
X111247783Y-62739613D01*
X111226411Y-62590012D01*
X111211174Y-62479376D01*
X111204954Y-62429571D01*
X111207836Y-62391827D01*
X111235795Y-62368797D01*
X111303552Y-62355724D01*
X111425826Y-62347850D01*
X111462571Y-62346299D01*
X111599490Y-62338640D01*
X111677449Y-62326809D01*
X111710059Y-62306827D01*
X111710932Y-62274712D01*
X111710668Y-62273728D01*
X111693458Y-62197324D01*
X111673461Y-62091267D01*
X111670810Y-62075785D01*
X111647854Y-61939714D01*
X111158950Y-61939714D01*
X110962715Y-61940036D01*
X110962715Y-61940036D01*
G37*
X110962715Y-61940036D02*
X110828086Y-61942275D01*
X110744094Y-61948336D01*
X110699774Y-61960125D01*
X110684159Y-61979549D01*
X110686282Y-62008512D01*
X110689210Y-62021357D01*
X110700376Y-62080463D01*
X110719638Y-62193879D01*
X110744682Y-62346890D01*
X110773197Y-62524782D01*
X110802870Y-62712841D01*
X110831390Y-62896352D01*
X110856443Y-63060600D01*
X110875718Y-63190870D01*
X110886903Y-63272449D01*
X110888771Y-63291357D01*
X110855737Y-63304730D01*
X110768412Y-63314441D01*
X110645053Y-63318543D01*
X110633498Y-63318571D01*
X110377854Y-63318571D01*
X110400810Y-63454642D01*
X110413971Y-63540754D01*
X110426727Y-63605822D01*
X110448384Y-63652770D01*
X110488249Y-63684523D01*
X110555630Y-63704007D01*
X110659835Y-63714146D01*
X110810169Y-63717864D01*
X111015941Y-63718088D01*
X111237946Y-63717714D01*
X112017288Y-63717714D01*
X111994333Y-63581642D01*
X111972356Y-63455515D01*
X111947808Y-63377844D01*
X111904689Y-63336921D01*
X111827001Y-63321037D01*
X111698746Y-63318482D01*
X111634878Y-63318571D01*
X111333218Y-63318571D01*
X111272777Y-62910357D01*
X111247783Y-62739613D01*
X111226411Y-62590012D01*
X111211174Y-62479376D01*
X111204954Y-62429571D01*
X111207836Y-62391827D01*
X111235795Y-62368797D01*
X111303552Y-62355724D01*
X111425826Y-62347850D01*
X111462571Y-62346299D01*
X111599490Y-62338640D01*
X111677449Y-62326809D01*
X111710059Y-62306827D01*
X111710932Y-62274712D01*
X111710668Y-62273728D01*
X111693458Y-62197324D01*
X111673461Y-62091267D01*
X111670810Y-62075785D01*
X111647854Y-61939714D01*
X111158950Y-61939714D01*
X110962715Y-61940036D01*
G36*
X114929893Y-61467999D02*
G01*
X114694696Y-61467999D01*
X114718112Y-61640357D01*
X114735791Y-61757141D01*
X114753130Y-61851114D01*
X114759066Y-61876214D01*
X114760595Y-61906148D01*
X114736644Y-61924914D01*
X114674540Y-61935057D01*
X114561608Y-61939122D01*
X114442840Y-61939714D01*
X114109076Y-61939714D01*
X114131567Y-62075785D01*
X114146676Y-62182526D01*
X114154266Y-62266037D01*
X114154457Y-62273995D01*
X114163932Y-62303843D01*
X114200622Y-62323522D01*
X114277617Y-62335858D01*
X114408005Y-62343677D01*
X114490500Y-62346566D01*
X114826142Y-62357000D01*
X114896013Y-62788257D01*
X114924989Y-62970259D01*
X114942106Y-63093994D01*
X114947422Y-63172784D01*
X114940996Y-63219948D01*
X114922888Y-63248806D01*
X114898149Y-63269043D01*
X114818993Y-63298445D01*
X114690135Y-63315652D01*
X114601493Y-63318571D01*
X114474056Y-63320662D01*
X114402446Y-63337128D01*
X114374713Y-63383257D01*
X114378905Y-63474338D01*
X114395861Y-63581642D01*
X114418352Y-63717714D01*
X114749247Y-63716293D01*
X114932281Y-63709568D01*
X115085452Y-63692592D01*
X115188279Y-63667705D01*
X115193416Y-63665574D01*
X115296300Y-63604196D01*
X115367999Y-63517918D01*
X115410121Y-63398128D01*
X115424271Y-63236219D01*
X115412057Y-63023581D01*
X115375086Y-62751604D01*
X115369933Y-62719857D01*
X115346235Y-62572901D01*
X115327856Y-62453745D01*
X115317484Y-62380062D01*
X115316138Y-62366071D01*
X115349180Y-62352275D01*
X115435837Y-62342483D01*
X115554302Y-62338857D01*
X115682044Y-62336640D01*
X115751631Y-62327239D01*
X115777416Y-62306529D01*
X115775185Y-62275357D01*
X115757599Y-62197714D01*
X115737408Y-62090952D01*
X115734810Y-62075785D01*
X115711854Y-61939714D01*
X115251505Y-61939714D01*
X115228083Y-61803642D01*
X115201519Y-61647439D01*
X115179241Y-61548871D01*
X115149561Y-61494785D01*
X115100792Y-61472023D01*
X115021247Y-61467431D01*
X114929893Y-61467999D01*
X114929893Y-61467999D01*
G37*
X114929893Y-61467999D02*
X114694696Y-61467999D01*
X114718112Y-61640357D01*
X114735791Y-61757141D01*
X114753130Y-61851114D01*
X114759066Y-61876214D01*
X114760595Y-61906148D01*
X114736644Y-61924914D01*
X114674540Y-61935057D01*
X114561608Y-61939122D01*
X114442840Y-61939714D01*
X114109076Y-61939714D01*
X114131567Y-62075785D01*
X114146676Y-62182526D01*
X114154266Y-62266037D01*
X114154457Y-62273995D01*
X114163932Y-62303843D01*
X114200622Y-62323522D01*
X114277617Y-62335858D01*
X114408005Y-62343677D01*
X114490500Y-62346566D01*
X114826142Y-62357000D01*
X114896013Y-62788257D01*
X114924989Y-62970259D01*
X114942106Y-63093994D01*
X114947422Y-63172784D01*
X114940996Y-63219948D01*
X114922888Y-63248806D01*
X114898149Y-63269043D01*
X114818993Y-63298445D01*
X114690135Y-63315652D01*
X114601493Y-63318571D01*
X114474056Y-63320662D01*
X114402446Y-63337128D01*
X114374713Y-63383257D01*
X114378905Y-63474338D01*
X114395861Y-63581642D01*
X114418352Y-63717714D01*
X114749247Y-63716293D01*
X114932281Y-63709568D01*
X115085452Y-63692592D01*
X115188279Y-63667705D01*
X115193416Y-63665574D01*
X115296300Y-63604196D01*
X115367999Y-63517918D01*
X115410121Y-63398128D01*
X115424271Y-63236219D01*
X115412057Y-63023581D01*
X115375086Y-62751604D01*
X115369933Y-62719857D01*
X115346235Y-62572901D01*
X115327856Y-62453745D01*
X115317484Y-62380062D01*
X115316138Y-62366071D01*
X115349180Y-62352275D01*
X115435837Y-62342483D01*
X115554302Y-62338857D01*
X115682044Y-62336640D01*
X115751631Y-62327239D01*
X115777416Y-62306529D01*
X115775185Y-62275357D01*
X115757599Y-62197714D01*
X115737408Y-62090952D01*
X115734810Y-62075785D01*
X115711854Y-61939714D01*
X115251505Y-61939714D01*
X115228083Y-61803642D01*
X115201519Y-61647439D01*
X115179241Y-61548871D01*
X115149561Y-61494785D01*
X115100792Y-61472023D01*
X115021247Y-61467431D01*
X114929893Y-61467999D01*
G36*
X116417445Y-61921267D02*
G01*
X116260671Y-61984257D01*
X116137094Y-62095677D01*
X116115216Y-62128030D01*
X116062906Y-62265667D01*
X116041643Y-62437821D01*
X116054537Y-62612032D01*
X116064584Y-62656357D01*
X116082865Y-62699963D01*
X116119952Y-62724535D01*
X116193356Y-62735427D01*
X116320588Y-62737993D01*
X116331580Y-62737999D01*
X116576697Y-62737999D01*
X116572909Y-62593521D01*
X116591630Y-62454749D01*
X116658837Y-62369224D01*
X116777986Y-62333280D01*
X116819915Y-62331599D01*
X116912048Y-62337961D01*
X116985739Y-62362554D01*
X117045002Y-62413643D01*
X117093849Y-62499495D01*
X117136294Y-62628372D01*
X117176351Y-62808542D01*
X117218032Y-63048267D01*
X117241900Y-63200642D01*
X117321124Y-63717714D01*
X117806531Y-63717714D01*
X117691136Y-63001071D01*
X117653875Y-62768925D01*
X117618928Y-62549838D01*
X117588583Y-62358251D01*
X117565126Y-62208607D01*
X117550846Y-62115348D01*
X117550361Y-62112071D01*
X117524982Y-61939714D01*
X117084562Y-61939714D01*
X117102797Y-62101501D01*
X117121033Y-62263288D01*
X117043293Y-62146858D01*
X116920340Y-62019504D01*
X116763940Y-61939229D01*
X116590755Y-61906371D01*
X116417445Y-61921267D01*
X116417445Y-61921267D01*
G37*
X116417445Y-61921267D02*
X116260671Y-61984257D01*
X116137094Y-62095677D01*
X116115216Y-62128030D01*
X116062906Y-62265667D01*
X116041643Y-62437821D01*
X116054537Y-62612032D01*
X116064584Y-62656357D01*
X116082865Y-62699963D01*
X116119952Y-62724535D01*
X116193356Y-62735427D01*
X116320588Y-62737993D01*
X116331580Y-62737999D01*
X116576697Y-62737999D01*
X116572909Y-62593521D01*
X116591630Y-62454749D01*
X116658837Y-62369224D01*
X116777986Y-62333280D01*
X116819915Y-62331599D01*
X116912048Y-62337961D01*
X116985739Y-62362554D01*
X117045002Y-62413643D01*
X117093849Y-62499495D01*
X117136294Y-62628372D01*
X117176351Y-62808542D01*
X117218032Y-63048267D01*
X117241900Y-63200642D01*
X117321124Y-63717714D01*
X117806531Y-63717714D01*
X117691136Y-63001071D01*
X117653875Y-62768925D01*
X117618928Y-62549838D01*
X117588583Y-62358251D01*
X117565126Y-62208607D01*
X117550846Y-62115348D01*
X117550361Y-62112071D01*
X117524982Y-61939714D01*
X117084562Y-61939714D01*
X117102797Y-62101501D01*
X117121033Y-62263288D01*
X117043293Y-62146858D01*
X116920340Y-62019504D01*
X116763940Y-61939229D01*
X116590755Y-61906371D01*
X116417445Y-61921267D01*
G36*
X120771893Y-61467999D02*
G01*
X120536696Y-61467999D01*
X120560112Y-61640357D01*
X120577791Y-61757141D01*
X120595130Y-61851114D01*
X120601066Y-61876214D01*
X120602595Y-61906148D01*
X120578644Y-61924914D01*
X120516540Y-61935057D01*
X120403608Y-61939122D01*
X120284840Y-61939714D01*
X119951076Y-61939714D01*
X119973567Y-62075785D01*
X119988676Y-62182526D01*
X119996266Y-62266037D01*
X119996457Y-62273995D01*
X120005932Y-62303843D01*
X120042622Y-62323522D01*
X120119617Y-62335858D01*
X120250005Y-62343677D01*
X120332500Y-62346566D01*
X120668143Y-62357000D01*
X120738013Y-62788257D01*
X120766989Y-62970259D01*
X120784106Y-63093994D01*
X120789422Y-63172784D01*
X120782996Y-63219948D01*
X120764888Y-63248806D01*
X120740149Y-63269043D01*
X120660993Y-63298445D01*
X120532135Y-63315652D01*
X120443493Y-63318571D01*
X120316056Y-63320662D01*
X120244446Y-63337128D01*
X120216713Y-63383257D01*
X120220905Y-63474338D01*
X120237861Y-63581642D01*
X120260352Y-63717714D01*
X120591247Y-63716293D01*
X120774281Y-63709568D01*
X120927452Y-63692592D01*
X121030279Y-63667705D01*
X121035416Y-63665574D01*
X121138300Y-63604196D01*
X121209999Y-63517918D01*
X121252121Y-63398128D01*
X121266271Y-63236219D01*
X121254057Y-63023581D01*
X121217086Y-62751604D01*
X121211933Y-62719857D01*
X121188235Y-62572901D01*
X121169856Y-62453745D01*
X121159484Y-62380062D01*
X121158138Y-62366071D01*
X121191180Y-62352275D01*
X121277837Y-62342483D01*
X121396302Y-62338857D01*
X121524044Y-62336640D01*
X121593631Y-62327239D01*
X121619416Y-62306529D01*
X121617185Y-62275357D01*
X121599599Y-62197714D01*
X121579408Y-62090952D01*
X121576810Y-62075785D01*
X121553854Y-61939714D01*
X121093505Y-61939714D01*
X121070083Y-61803642D01*
X121043519Y-61647439D01*
X121021241Y-61548871D01*
X120991561Y-61494785D01*
X120942792Y-61472023D01*
X120863247Y-61467431D01*
X120771893Y-61467999D01*
X120771893Y-61467999D01*
G37*
X120771893Y-61467999D02*
X120536696Y-61467999D01*
X120560112Y-61640357D01*
X120577791Y-61757141D01*
X120595130Y-61851114D01*
X120601066Y-61876214D01*
X120602595Y-61906148D01*
X120578644Y-61924914D01*
X120516540Y-61935057D01*
X120403608Y-61939122D01*
X120284840Y-61939714D01*
X119951076Y-61939714D01*
X119973567Y-62075785D01*
X119988676Y-62182526D01*
X119996266Y-62266037D01*
X119996457Y-62273995D01*
X120005932Y-62303843D01*
X120042622Y-62323522D01*
X120119617Y-62335858D01*
X120250005Y-62343677D01*
X120332500Y-62346566D01*
X120668143Y-62357000D01*
X120738013Y-62788257D01*
X120766989Y-62970259D01*
X120784106Y-63093994D01*
X120789422Y-63172784D01*
X120782996Y-63219948D01*
X120764888Y-63248806D01*
X120740149Y-63269043D01*
X120660993Y-63298445D01*
X120532135Y-63315652D01*
X120443493Y-63318571D01*
X120316056Y-63320662D01*
X120244446Y-63337128D01*
X120216713Y-63383257D01*
X120220905Y-63474338D01*
X120237861Y-63581642D01*
X120260352Y-63717714D01*
X120591247Y-63716293D01*
X120774281Y-63709568D01*
X120927452Y-63692592D01*
X121030279Y-63667705D01*
X121035416Y-63665574D01*
X121138300Y-63604196D01*
X121209999Y-63517918D01*
X121252121Y-63398128D01*
X121266271Y-63236219D01*
X121254057Y-63023581D01*
X121217086Y-62751604D01*
X121211933Y-62719857D01*
X121188235Y-62572901D01*
X121169856Y-62453745D01*
X121159484Y-62380062D01*
X121158138Y-62366071D01*
X121191180Y-62352275D01*
X121277837Y-62342483D01*
X121396302Y-62338857D01*
X121524044Y-62336640D01*
X121593631Y-62327239D01*
X121619416Y-62306529D01*
X121617185Y-62275357D01*
X121599599Y-62197714D01*
X121579408Y-62090952D01*
X121576810Y-62075785D01*
X121553854Y-61939714D01*
X121093505Y-61939714D01*
X121070083Y-61803642D01*
X121043519Y-61647439D01*
X121021241Y-61548871D01*
X120991561Y-61494785D01*
X120942792Y-61472023D01*
X120863247Y-61467431D01*
X120771893Y-61467999D01*
G36*
X113266957Y-61359174D02*
G01*
X113198502Y-61366493D01*
X113158296Y-61391937D01*
X113143071Y-61446346D01*
X113149555Y-61540555D01*
X113174480Y-61685404D01*
X113211318Y-61874927D01*
X113241219Y-62030173D01*
X113265140Y-62156738D01*
X113280181Y-62239128D01*
X113283890Y-62262580D01*
X113266326Y-62245088D01*
X113222133Y-62183959D01*
X113201633Y-62153723D01*
X113072098Y-62013422D01*
X112920838Y-61932582D01*
X112760590Y-61907437D01*
X112604094Y-61934224D01*
X112464090Y-62009178D01*
X112353316Y-62128535D01*
X112284512Y-62288531D01*
X112268106Y-62429571D01*
X112275905Y-62549015D01*
X112296535Y-62714020D01*
X112325830Y-62899592D01*
X112359627Y-63080739D01*
X112393761Y-63232469D01*
X112413288Y-63300869D01*
X112496053Y-63454374D01*
X112625568Y-63583614D01*
X112784947Y-63680357D01*
X112957303Y-63736372D01*
X113125746Y-63743426D01*
X113247714Y-63707603D01*
X113325158Y-63644516D01*
X113394183Y-63550422D01*
X113400479Y-63538470D01*
X113462529Y-63414664D01*
X113510989Y-63717714D01*
X113744654Y-63717714D01*
X113870820Y-63715428D01*
X113938919Y-63705744D01*
X113963383Y-63684419D01*
X113960720Y-63654214D01*
X113950924Y-63603629D01*
X113931557Y-63490596D01*
X113904128Y-63324385D01*
X113870143Y-63114271D01*
X113858514Y-63041352D01*
X113379314Y-63041352D01*
X113373970Y-63181920D01*
X113339810Y-63271610D01*
X113274740Y-63319113D01*
X113240693Y-63328052D01*
X113086450Y-63328669D01*
X112951955Y-63279695D01*
X112909965Y-63247552D01*
X112873444Y-63182297D01*
X112835329Y-63065593D01*
X112799759Y-62918338D01*
X112770874Y-62761427D01*
X112752814Y-62615756D01*
X112749717Y-62502221D01*
X112754891Y-62464754D01*
X112809206Y-62382341D01*
X112908860Y-62335507D01*
X113032773Y-62330588D01*
X113120891Y-62354735D01*
X113199684Y-62394946D01*
X113255463Y-62447926D01*
X113295392Y-62528380D01*
X113326639Y-62651016D01*
X113356368Y-62830537D01*
X113357935Y-62841212D01*
X113379314Y-63041352D01*
X113858514Y-63041352D01*
X113831108Y-62869524D01*
X113788532Y-62599417D01*
X113769064Y-62474928D01*
X113595008Y-61359142D01*
X113366932Y-61359142D01*
X113266957Y-61359174D01*
X113266957Y-61359174D01*
G37*
X113266957Y-61359174D02*
X113198502Y-61366493D01*
X113158296Y-61391937D01*
X113143071Y-61446346D01*
X113149555Y-61540555D01*
X113174480Y-61685404D01*
X113211318Y-61874927D01*
X113241219Y-62030173D01*
X113265140Y-62156738D01*
X113280181Y-62239128D01*
X113283890Y-62262580D01*
X113266326Y-62245088D01*
X113222133Y-62183959D01*
X113201633Y-62153723D01*
X113072098Y-62013422D01*
X112920838Y-61932582D01*
X112760590Y-61907437D01*
X112604094Y-61934224D01*
X112464090Y-62009178D01*
X112353316Y-62128535D01*
X112284512Y-62288531D01*
X112268106Y-62429571D01*
X112275905Y-62549015D01*
X112296535Y-62714020D01*
X112325830Y-62899592D01*
X112359627Y-63080739D01*
X112393761Y-63232469D01*
X112413288Y-63300869D01*
X112496053Y-63454374D01*
X112625568Y-63583614D01*
X112784947Y-63680357D01*
X112957303Y-63736372D01*
X113125746Y-63743426D01*
X113247714Y-63707603D01*
X113325158Y-63644516D01*
X113394183Y-63550422D01*
X113400479Y-63538470D01*
X113462529Y-63414664D01*
X113510989Y-63717714D01*
X113744654Y-63717714D01*
X113870820Y-63715428D01*
X113938919Y-63705744D01*
X113963383Y-63684419D01*
X113960720Y-63654214D01*
X113950924Y-63603629D01*
X113931557Y-63490596D01*
X113904128Y-63324385D01*
X113870143Y-63114271D01*
X113858514Y-63041352D01*
X113379314Y-63041352D01*
X113373970Y-63181920D01*
X113339810Y-63271610D01*
X113274740Y-63319113D01*
X113240693Y-63328052D01*
X113086450Y-63328669D01*
X112951955Y-63279695D01*
X112909965Y-63247552D01*
X112873444Y-63182297D01*
X112835329Y-63065593D01*
X112799759Y-62918338D01*
X112770874Y-62761427D01*
X112752814Y-62615756D01*
X112749717Y-62502221D01*
X112754891Y-62464754D01*
X112809206Y-62382341D01*
X112908860Y-62335507D01*
X113032773Y-62330588D01*
X113120891Y-62354735D01*
X113199684Y-62394946D01*
X113255463Y-62447926D01*
X113295392Y-62528380D01*
X113326639Y-62651016D01*
X113356368Y-62830537D01*
X113357935Y-62841212D01*
X113379314Y-63041352D01*
X113858514Y-63041352D01*
X113831108Y-62869524D01*
X113788532Y-62599417D01*
X113769064Y-62474928D01*
X113595008Y-61359142D01*
X113366932Y-61359142D01*
X113266957Y-61359174D01*
G36*
X118712716Y-61945767D02*
G01*
X118609568Y-62015641D01*
X118559298Y-62107107D01*
X118536303Y-62166884D01*
X118510457Y-62159846D01*
X118504899Y-62151805D01*
X118479303Y-62076759D01*
X118473412Y-62021357D01*
X118467753Y-61977713D01*
X118440740Y-61953215D01*
X118376193Y-61942383D01*
X118257934Y-61939742D01*
X118232252Y-61939714D01*
X117991647Y-61939714D01*
X118010604Y-62057642D01*
X118021746Y-62128148D01*
X118042053Y-62257796D01*
X118069562Y-62434016D01*
X118102311Y-62644238D01*
X118138340Y-62875890D01*
X118149333Y-62946642D01*
X118269104Y-63717714D01*
X118733236Y-63717714D01*
X118709400Y-63563499D01*
X118685564Y-63409285D01*
X118758834Y-63516277D01*
X118887216Y-63645331D01*
X119050749Y-63724897D01*
X119229959Y-63750552D01*
X119405373Y-63717874D01*
X119481969Y-63680498D01*
X119599318Y-63569918D01*
X119678333Y-63415659D01*
X119706571Y-63245525D01*
X119697936Y-63109555D01*
X119697765Y-63108283D01*
X119205663Y-63108283D01*
X119186893Y-63207050D01*
X119186367Y-63208179D01*
X119111473Y-63290936D01*
X119001165Y-63329593D01*
X118878966Y-63322396D01*
X118768401Y-63267587D01*
X118740867Y-63241433D01*
X118688653Y-63152059D01*
X118645098Y-63019761D01*
X118612501Y-62863384D01*
X118593165Y-62701771D01*
X118589392Y-62553768D01*
X118603482Y-62438218D01*
X118635161Y-62375957D01*
X118734341Y-62334868D01*
X118859437Y-62335310D01*
X118979200Y-62374108D01*
X119037901Y-62416871D01*
X119091973Y-62504949D01*
X119140093Y-62641094D01*
X119177954Y-62802340D01*
X119201247Y-62965725D01*
X119205663Y-63108283D01*
X119697765Y-63108283D01*
X119674808Y-62937601D01*
X119641350Y-62750187D01*
X119601728Y-62567839D01*
X119560106Y-62411080D01*
X119520647Y-62300435D01*
X119510892Y-62281108D01*
X119431818Y-62170976D01*
X119329103Y-62062938D01*
X119299785Y-62037760D01*
X119159547Y-61955976D01*
X119004055Y-61914403D01*
X118849662Y-61911510D01*
X118712716Y-61945767D01*
X118712716Y-61945767D01*
G37*
X118712716Y-61945767D02*
X118609568Y-62015641D01*
X118559298Y-62107107D01*
X118536303Y-62166884D01*
X118510457Y-62159846D01*
X118504899Y-62151805D01*
X118479303Y-62076759D01*
X118473412Y-62021357D01*
X118467753Y-61977713D01*
X118440740Y-61953215D01*
X118376193Y-61942383D01*
X118257934Y-61939742D01*
X118232252Y-61939714D01*
X117991647Y-61939714D01*
X118010604Y-62057642D01*
X118021746Y-62128148D01*
X118042053Y-62257796D01*
X118069562Y-62434016D01*
X118102311Y-62644238D01*
X118138340Y-62875890D01*
X118149333Y-62946642D01*
X118269104Y-63717714D01*
X118733236Y-63717714D01*
X118709400Y-63563499D01*
X118685564Y-63409285D01*
X118758834Y-63516277D01*
X118887216Y-63645331D01*
X119050749Y-63724897D01*
X119229959Y-63750552D01*
X119405373Y-63717874D01*
X119481969Y-63680498D01*
X119599318Y-63569918D01*
X119678333Y-63415659D01*
X119706571Y-63245525D01*
X119697936Y-63109555D01*
X119697765Y-63108283D01*
X119205663Y-63108283D01*
X119186893Y-63207050D01*
X119186367Y-63208179D01*
X119111473Y-63290936D01*
X119001165Y-63329593D01*
X118878966Y-63322396D01*
X118768401Y-63267587D01*
X118740867Y-63241433D01*
X118688653Y-63152059D01*
X118645098Y-63019761D01*
X118612501Y-62863384D01*
X118593165Y-62701771D01*
X118589392Y-62553768D01*
X118603482Y-62438218D01*
X118635161Y-62375957D01*
X118734341Y-62334868D01*
X118859437Y-62335310D01*
X118979200Y-62374108D01*
X119037901Y-62416871D01*
X119091973Y-62504949D01*
X119140093Y-62641094D01*
X119177954Y-62802340D01*
X119201247Y-62965725D01*
X119205663Y-63108283D01*
X119697765Y-63108283D01*
X119674808Y-62937601D01*
X119641350Y-62750187D01*
X119601728Y-62567839D01*
X119560106Y-62411080D01*
X119520647Y-62300435D01*
X119510892Y-62281108D01*
X119431818Y-62170976D01*
X119329103Y-62062938D01*
X119299785Y-62037760D01*
X119159547Y-61955976D01*
X119004055Y-61914403D01*
X118849662Y-61911510D01*
X118712716Y-61945767D01*
G36*
X122435437Y-61342178D02*
G01*
X122247125Y-61370635D01*
X122122896Y-61415403D01*
X121982591Y-61525641D01*
X121886265Y-61676194D01*
X121847620Y-61845075D01*
X121847428Y-61857505D01*
X121847428Y-61975999D01*
X122074214Y-61975770D01*
X122200677Y-61973008D01*
X122276178Y-61959822D01*
X122322278Y-61928383D01*
X122359877Y-61872027D01*
X122444435Y-61787772D01*
X122562316Y-61746633D01*
X122690749Y-61747967D01*
X122806962Y-61791130D01*
X122888185Y-61875481D01*
X122893940Y-61887104D01*
X122936104Y-62029111D01*
X122916365Y-62140953D01*
X122832032Y-62226854D01*
X122680411Y-62291041D01*
X122627571Y-62305201D01*
X122368887Y-62391794D01*
X122171371Y-62509397D01*
X122103073Y-62572355D01*
X122038075Y-62685664D01*
X122000773Y-62840790D01*
X121993317Y-63011623D01*
X122017860Y-63172053D01*
X122047276Y-63249397D01*
X122189226Y-63455738D01*
X122377868Y-63615061D01*
X122441813Y-63651622D01*
X122594942Y-63704868D01*
X122786564Y-63735876D01*
X122986874Y-63742751D01*
X123166067Y-63723596D01*
X123241601Y-63702499D01*
X123426555Y-63602741D01*
X123550038Y-63464411D01*
X123612054Y-63287504D01*
X123616905Y-63249371D01*
X123634661Y-63064571D01*
X123402143Y-63064571D01*
X123275419Y-63066508D01*
X123201681Y-63077427D01*
X123161358Y-63104990D01*
X123134876Y-63156859D01*
X123129311Y-63171373D01*
X123065791Y-63264259D01*
X122967142Y-63310203D01*
X122803281Y-63326761D01*
X122657337Y-63293405D01*
X122543601Y-63218100D01*
X122476363Y-63108812D01*
X122464285Y-63029889D01*
X122483764Y-62937171D01*
X122548339Y-62862513D01*
X122667222Y-62798915D01*
X122844700Y-62740737D01*
X123077567Y-62656592D01*
X123245442Y-62548388D01*
X123353588Y-62410259D01*
X123407269Y-62236340D01*
X123415481Y-62104613D01*
X123380426Y-61869895D01*
X123281299Y-61668213D01*
X123120413Y-61503289D01*
X122990428Y-61421006D01*
X122834576Y-61367540D01*
X122640417Y-61341205D01*
X122435437Y-61342178D01*
X122435437Y-61342178D01*
G37*
X122435437Y-61342178D02*
X122247125Y-61370635D01*
X122122896Y-61415403D01*
X121982591Y-61525641D01*
X121886265Y-61676194D01*
X121847620Y-61845075D01*
X121847428Y-61857505D01*
X121847428Y-61975999D01*
X122074214Y-61975770D01*
X122200677Y-61973008D01*
X122276178Y-61959822D01*
X122322278Y-61928383D01*
X122359877Y-61872027D01*
X122444435Y-61787772D01*
X122562316Y-61746633D01*
X122690749Y-61747967D01*
X122806962Y-61791130D01*
X122888185Y-61875481D01*
X122893940Y-61887104D01*
X122936104Y-62029111D01*
X122916365Y-62140953D01*
X122832032Y-62226854D01*
X122680411Y-62291041D01*
X122627571Y-62305201D01*
X122368887Y-62391794D01*
X122171371Y-62509397D01*
X122103073Y-62572355D01*
X122038075Y-62685664D01*
X122000773Y-62840790D01*
X121993317Y-63011623D01*
X122017860Y-63172053D01*
X122047276Y-63249397D01*
X122189226Y-63455738D01*
X122377868Y-63615061D01*
X122441813Y-63651622D01*
X122594942Y-63704868D01*
X122786564Y-63735876D01*
X122986874Y-63742751D01*
X123166067Y-63723596D01*
X123241601Y-63702499D01*
X123426555Y-63602741D01*
X123550038Y-63464411D01*
X123612054Y-63287504D01*
X123616905Y-63249371D01*
X123634661Y-63064571D01*
X123402143Y-63064571D01*
X123275419Y-63066508D01*
X123201681Y-63077427D01*
X123161358Y-63104990D01*
X123134876Y-63156859D01*
X123129311Y-63171373D01*
X123065791Y-63264259D01*
X122967142Y-63310203D01*
X122803281Y-63326761D01*
X122657337Y-63293405D01*
X122543601Y-63218100D01*
X122476363Y-63108812D01*
X122464285Y-63029889D01*
X122483764Y-62937171D01*
X122548339Y-62862513D01*
X122667222Y-62798915D01*
X122844700Y-62740737D01*
X123077567Y-62656592D01*
X123245442Y-62548388D01*
X123353588Y-62410259D01*
X123407269Y-62236340D01*
X123415481Y-62104613D01*
X123380426Y-61869895D01*
X123281299Y-61668213D01*
X123120413Y-61503289D01*
X122990428Y-61421006D01*
X122834576Y-61367540D01*
X122640417Y-61341205D01*
X122435437Y-61342178D01*
D11*
G36*
X129249254Y-82863818D02*
G01*
X129622511Y-83018426D01*
X129622513Y-83018427D01*
X129958436Y-83242884D01*
X130244116Y-83528564D01*
X130468574Y-83864489D01*
X130623182Y-84237746D01*
X130702000Y-84633993D01*
X130702000Y-85038007D01*
X130623182Y-85434254D01*
X130468574Y-85807511D01*
X130468573Y-85807513D01*
X130244116Y-86143436D01*
X129958436Y-86429116D01*
X129622513Y-86653573D01*
X129622512Y-86653574D01*
X129622511Y-86653574D01*
X129249254Y-86808182D01*
X128853007Y-86887000D01*
X128448993Y-86887000D01*
X128052746Y-86808182D01*
X127679489Y-86653574D01*
X127679488Y-86653574D01*
X127679487Y-86653573D01*
X127343564Y-86429116D01*
X127057884Y-86143436D01*
X126833427Y-85807513D01*
X126833426Y-85807511D01*
X126678818Y-85434254D01*
X126600000Y-85038007D01*
X126600000Y-84633993D01*
X126678818Y-84237746D01*
X126833426Y-83864489D01*
X127057884Y-83528564D01*
X127343564Y-83242884D01*
X127679487Y-83018427D01*
X127679489Y-83018426D01*
X128052746Y-82863818D01*
X128448993Y-82785000D01*
X128853007Y-82785000D01*
X129249254Y-82863818D01*
X129249254Y-82863818D01*
G37*
G36*
X103975000Y-85814000D02*
G01*
X102273000Y-85814000D01*
X102273000Y-84112000D01*
X103975000Y-84112000D01*
X103975000Y-85814000D01*
X103975000Y-85814000D01*
G37*
G36*
X116010424Y-77918760D02*
G01*
X116010427Y-77918761D01*
X116010428Y-77918761D01*
X116189692Y-77973140D01*
X116189695Y-77973142D01*
X116189696Y-77973142D01*
X116354903Y-78061446D01*
X116499712Y-78180288D01*
X116618554Y-78325097D01*
X116706858Y-78490303D01*
X116706860Y-78490307D01*
X116706860Y-78490308D01*
X116761240Y-78669575D01*
X116775000Y-78809282D01*
X116775000Y-80702718D01*
X116761240Y-80842425D01*
X116761239Y-80842428D01*
X116761239Y-80842429D01*
X116706860Y-81021693D01*
X116706858Y-81021696D01*
X116706858Y-81021697D01*
X116618554Y-81186903D01*
X116499712Y-81331712D01*
X116354903Y-81450554D01*
X116207425Y-81529382D01*
X116189693Y-81538860D01*
X116010429Y-81593239D01*
X116010428Y-81593239D01*
X116010425Y-81593240D01*
X115824000Y-81611601D01*
X115637576Y-81593240D01*
X115637573Y-81593239D01*
X115637572Y-81593239D01*
X115458308Y-81538860D01*
X115440576Y-81529382D01*
X115293098Y-81450554D01*
X115148289Y-81331712D01*
X115029447Y-81186903D01*
X114941143Y-81021697D01*
X114941143Y-81021696D01*
X114941141Y-81021693D01*
X114886762Y-80842429D01*
X114886762Y-80842428D01*
X114886761Y-80842425D01*
X114873000Y-80702717D01*
X114873000Y-78809283D01*
X114886760Y-78669576D01*
X114886761Y-78669572D01*
X114941140Y-78490308D01*
X114941143Y-78490303D01*
X115029446Y-78325097D01*
X115148288Y-78180288D01*
X115293097Y-78061446D01*
X115458303Y-77973142D01*
X115458304Y-77973142D01*
X115458307Y-77973140D01*
X115637571Y-77918761D01*
X115637572Y-77918761D01*
X115637575Y-77918760D01*
X115824000Y-77900399D01*
X116010424Y-77918760D01*
X116010424Y-77918760D01*
G37*
G36*
X119820424Y-77918760D02*
G01*
X119820427Y-77918761D01*
X119820428Y-77918761D01*
X119999692Y-77973140D01*
X119999695Y-77973142D01*
X119999696Y-77973142D01*
X120164903Y-78061446D01*
X120309712Y-78180288D01*
X120428554Y-78325097D01*
X120516858Y-78490303D01*
X120516860Y-78490307D01*
X120516860Y-78490308D01*
X120571240Y-78669575D01*
X120585000Y-78809282D01*
X120585000Y-80702718D01*
X120571240Y-80842425D01*
X120571239Y-80842428D01*
X120571239Y-80842429D01*
X120516860Y-81021693D01*
X120516858Y-81021696D01*
X120516858Y-81021697D01*
X120428554Y-81186903D01*
X120309712Y-81331712D01*
X120164903Y-81450554D01*
X120017425Y-81529382D01*
X119999693Y-81538860D01*
X119820429Y-81593239D01*
X119820428Y-81593239D01*
X119820425Y-81593240D01*
X119634000Y-81611601D01*
X119447576Y-81593240D01*
X119447573Y-81593239D01*
X119447572Y-81593239D01*
X119268308Y-81538860D01*
X119250576Y-81529382D01*
X119103098Y-81450554D01*
X118958289Y-81331712D01*
X118839447Y-81186903D01*
X118751143Y-81021697D01*
X118751143Y-81021696D01*
X118751141Y-81021693D01*
X118696762Y-80842429D01*
X118696762Y-80842428D01*
X118696761Y-80842425D01*
X118683000Y-80702717D01*
X118683000Y-78809283D01*
X118696760Y-78669576D01*
X118696761Y-78669572D01*
X118751140Y-78490308D01*
X118751143Y-78490303D01*
X118839446Y-78325097D01*
X118958288Y-78180288D01*
X119103097Y-78061446D01*
X119268303Y-77973142D01*
X119268304Y-77973142D01*
X119268307Y-77973140D01*
X119447571Y-77918761D01*
X119447572Y-77918761D01*
X119447575Y-77918760D01*
X119634000Y-77900399D01*
X119820424Y-77918760D01*
X119820424Y-77918760D01*
G37*
G36*
X112824915Y-77908934D02*
G01*
X112857424Y-77918795D01*
X112887382Y-77934809D01*
X112913641Y-77956359D01*
X112935191Y-77982618D01*
X112951205Y-78012576D01*
X112961066Y-78045085D01*
X112965000Y-78085029D01*
X112965000Y-81426971D01*
X112961066Y-81466915D01*
X112951205Y-81499424D01*
X112935191Y-81529382D01*
X112913641Y-81555641D01*
X112887382Y-81577191D01*
X112857424Y-81593205D01*
X112824915Y-81603066D01*
X112784971Y-81607000D01*
X111243029Y-81607000D01*
X111203085Y-81603066D01*
X111170576Y-81593205D01*
X111140618Y-81577191D01*
X111114359Y-81555641D01*
X111092809Y-81529382D01*
X111076795Y-81499424D01*
X111066934Y-81466915D01*
X111063000Y-81426971D01*
X111063000Y-78085029D01*
X111066934Y-78045085D01*
X111076795Y-78012576D01*
X111092809Y-77982618D01*
X111114359Y-77956359D01*
X111140618Y-77934809D01*
X111170576Y-77918795D01*
X111203085Y-77908934D01*
X111243029Y-77905000D01*
X112784971Y-77905000D01*
X112824915Y-77908934D01*
X112824915Y-77908934D01*
G37*
G36*
X129249254Y-75751818D02*
G01*
X129622511Y-75906426D01*
X129622513Y-75906427D01*
X129958436Y-76130884D01*
X130244116Y-76416564D01*
X130388063Y-76631995D01*
X130468574Y-76752489D01*
X130623182Y-77125746D01*
X130702000Y-77521993D01*
X130702000Y-77926007D01*
X130623182Y-78322254D01*
X130468574Y-78695511D01*
X130468573Y-78695513D01*
X130244116Y-79031436D01*
X129958436Y-79317116D01*
X129622513Y-79541573D01*
X129622512Y-79541574D01*
X129622511Y-79541574D01*
X129249254Y-79696182D01*
X128853007Y-79775000D01*
X128448993Y-79775000D01*
X128052746Y-79696182D01*
X127679489Y-79541574D01*
X127679488Y-79541574D01*
X127679487Y-79541573D01*
X127343564Y-79317116D01*
X127057884Y-79031436D01*
X126833427Y-78695513D01*
X126833426Y-78695511D01*
X126678818Y-78322254D01*
X126600000Y-77926007D01*
X126600000Y-77521993D01*
X126678818Y-77125746D01*
X126833426Y-76752489D01*
X126913938Y-76631995D01*
X127057884Y-76416564D01*
X127343564Y-76130884D01*
X127679487Y-75906427D01*
X127679489Y-75906426D01*
X128052746Y-75751818D01*
X128448993Y-75673000D01*
X128853007Y-75673000D01*
X129249254Y-75751818D01*
X129249254Y-75751818D01*
G37*
G36*
X103290823Y-76504313D02*
G01*
X103451242Y-76552976D01*
X103583906Y-76623886D01*
X103599078Y-76631996D01*
X103728659Y-76738341D01*
X103835004Y-76867922D01*
X103835005Y-76867924D01*
X103914024Y-77015758D01*
X103962687Y-77176177D01*
X103979117Y-77343000D01*
X103962687Y-77509823D01*
X103914024Y-77670242D01*
X103843114Y-77802906D01*
X103835004Y-77818078D01*
X103728659Y-77947659D01*
X103599078Y-78054004D01*
X103599076Y-78054005D01*
X103451242Y-78133024D01*
X103290823Y-78181687D01*
X103165804Y-78194000D01*
X103082196Y-78194000D01*
X102957177Y-78181687D01*
X102796758Y-78133024D01*
X102648924Y-78054005D01*
X102648922Y-78054004D01*
X102519341Y-77947659D01*
X102412996Y-77818078D01*
X102404886Y-77802906D01*
X102333976Y-77670242D01*
X102285313Y-77509823D01*
X102268883Y-77343000D01*
X102285313Y-77176177D01*
X102333976Y-77015758D01*
X102412995Y-76867924D01*
X102412996Y-76867922D01*
X102519341Y-76738341D01*
X102648922Y-76631996D01*
X102664094Y-76623886D01*
X102796758Y-76552976D01*
X102957177Y-76504313D01*
X103082196Y-76492000D01*
X103165804Y-76492000D01*
X103290823Y-76504313D01*
X103290823Y-76504313D01*
G37*
G36*
X115958479Y-69958926D02*
G01*
X115992618Y-69969282D01*
X116087795Y-69998153D01*
X116206964Y-70061851D01*
X116311423Y-70147577D01*
X116397149Y-70252036D01*
X116460847Y-70371205D01*
X116500074Y-70500522D01*
X116510000Y-70601300D01*
X116510000Y-71176700D01*
X116500074Y-71277478D01*
X116460847Y-71406795D01*
X116397149Y-71525964D01*
X116311423Y-71630422D01*
X116206963Y-71716149D01*
X116087794Y-71779847D01*
X116034393Y-71796046D01*
X115958478Y-71819074D01*
X115824000Y-71832319D01*
X115689521Y-71819074D01*
X115613606Y-71796046D01*
X115560205Y-71779847D01*
X115441036Y-71716149D01*
X115336578Y-71630423D01*
X115250851Y-71525963D01*
X115187153Y-71406794D01*
X115170955Y-71353394D01*
X115147926Y-71277478D01*
X115138000Y-71176697D01*
X115138000Y-70601302D01*
X115147926Y-70500521D01*
X115187152Y-70371209D01*
X115187152Y-70371208D01*
X115221201Y-70307508D01*
X115250852Y-70252035D01*
X115258539Y-70242669D01*
X115336578Y-70147577D01*
X115441037Y-70061851D01*
X115560206Y-69998153D01*
X115655383Y-69969282D01*
X115689522Y-69958926D01*
X115824000Y-69945681D01*
X115958479Y-69958926D01*
X115958479Y-69958926D01*
G37*
G36*
X118728479Y-69958926D02*
G01*
X118762618Y-69969282D01*
X118857795Y-69998153D01*
X118976964Y-70061851D01*
X119081423Y-70147577D01*
X119167149Y-70252036D01*
X119230847Y-70371205D01*
X119270074Y-70500522D01*
X119280000Y-70601300D01*
X119280000Y-71176700D01*
X119270074Y-71277478D01*
X119230847Y-71406795D01*
X119167149Y-71525964D01*
X119081423Y-71630422D01*
X118976963Y-71716149D01*
X118857794Y-71779847D01*
X118804393Y-71796046D01*
X118728478Y-71819074D01*
X118594000Y-71832319D01*
X118459521Y-71819074D01*
X118383606Y-71796046D01*
X118330205Y-71779847D01*
X118211036Y-71716149D01*
X118106578Y-71630423D01*
X118020851Y-71525963D01*
X117957153Y-71406794D01*
X117940955Y-71353394D01*
X117917926Y-71277478D01*
X117908000Y-71176697D01*
X117908000Y-70601302D01*
X117917926Y-70500521D01*
X117957152Y-70371209D01*
X117957152Y-70371208D01*
X117991201Y-70307508D01*
X118020852Y-70252035D01*
X118028539Y-70242669D01*
X118106578Y-70147577D01*
X118211037Y-70061851D01*
X118330206Y-69998153D01*
X118425383Y-69969282D01*
X118459522Y-69958926D01*
X118594000Y-69945681D01*
X118728479Y-69958926D01*
X118728479Y-69958926D01*
G37*
G36*
X113188479Y-69958926D02*
G01*
X113222618Y-69969282D01*
X113317795Y-69998153D01*
X113436964Y-70061851D01*
X113541423Y-70147577D01*
X113627149Y-70252036D01*
X113690847Y-70371205D01*
X113730074Y-70500522D01*
X113740000Y-70601300D01*
X113740000Y-71176700D01*
X113730074Y-71277478D01*
X113690847Y-71406795D01*
X113627149Y-71525964D01*
X113541423Y-71630422D01*
X113436963Y-71716149D01*
X113317794Y-71779847D01*
X113264393Y-71796046D01*
X113188478Y-71819074D01*
X113054000Y-71832319D01*
X112919521Y-71819074D01*
X112843606Y-71796046D01*
X112790205Y-71779847D01*
X112671036Y-71716149D01*
X112566578Y-71630423D01*
X112480851Y-71525963D01*
X112417153Y-71406794D01*
X112400955Y-71353394D01*
X112377926Y-71277478D01*
X112368000Y-71176697D01*
X112368000Y-70601302D01*
X112377926Y-70500521D01*
X112417152Y-70371209D01*
X112417152Y-70371208D01*
X112451201Y-70307508D01*
X112480852Y-70252035D01*
X112488539Y-70242669D01*
X112566578Y-70147577D01*
X112671037Y-70061851D01*
X112790206Y-69998153D01*
X112885383Y-69969282D01*
X112919522Y-69958926D01*
X113054000Y-69945681D01*
X113188479Y-69958926D01*
X113188479Y-69958926D01*
G37*
G36*
X121498479Y-69958926D02*
G01*
X121532618Y-69969282D01*
X121627795Y-69998153D01*
X121746964Y-70061851D01*
X121851423Y-70147577D01*
X121937149Y-70252036D01*
X122000847Y-70371205D01*
X122040074Y-70500522D01*
X122050000Y-70601300D01*
X122050000Y-71176700D01*
X122040074Y-71277478D01*
X122000847Y-71406795D01*
X121937149Y-71525964D01*
X121851423Y-71630422D01*
X121746963Y-71716149D01*
X121627794Y-71779847D01*
X121574393Y-71796046D01*
X121498478Y-71819074D01*
X121364000Y-71832319D01*
X121229521Y-71819074D01*
X121153606Y-71796046D01*
X121100205Y-71779847D01*
X120981036Y-71716149D01*
X120876578Y-71630423D01*
X120790851Y-71525963D01*
X120727153Y-71406794D01*
X120710955Y-71353394D01*
X120687926Y-71277478D01*
X120678000Y-71176697D01*
X120678000Y-70601302D01*
X120687926Y-70500521D01*
X120727152Y-70371209D01*
X120727152Y-70371208D01*
X120761201Y-70307508D01*
X120790852Y-70252035D01*
X120798539Y-70242669D01*
X120876578Y-70147577D01*
X120981037Y-70061851D01*
X121100206Y-69998153D01*
X121195383Y-69969282D01*
X121229522Y-69958926D01*
X121364000Y-69945681D01*
X121498479Y-69958926D01*
X121498479Y-69958926D01*
G37*
G36*
X110970000Y-71829000D02*
G01*
X109598000Y-71829000D01*
X109598000Y-69949000D01*
X110970000Y-69949000D01*
X110970000Y-71829000D01*
X110970000Y-71829000D01*
G37*
G36*
X104238472Y-68177412D02*
G01*
X104334040Y-68186825D01*
X104579280Y-68261218D01*
X104805294Y-68382025D01*
X104856899Y-68424376D01*
X105003397Y-68544603D01*
X105119407Y-68685963D01*
X105165975Y-68742706D01*
X105286782Y-68968720D01*
X105361175Y-69213960D01*
X105386294Y-69469000D01*
X105361175Y-69724040D01*
X105286782Y-69969280D01*
X105165975Y-70195294D01*
X105123624Y-70246899D01*
X105003397Y-70393397D01*
X104856899Y-70513624D01*
X104805294Y-70555975D01*
X104579280Y-70676782D01*
X104334040Y-70751175D01*
X104238472Y-70760588D01*
X104142906Y-70770000D01*
X102515094Y-70770000D01*
X102419528Y-70760588D01*
X102323960Y-70751175D01*
X102078720Y-70676782D01*
X101852706Y-70555975D01*
X101801101Y-70513624D01*
X101654603Y-70393397D01*
X101534376Y-70246899D01*
X101492025Y-70195294D01*
X101371218Y-69969280D01*
X101296825Y-69724040D01*
X101271706Y-69469000D01*
X101296825Y-69213960D01*
X101371218Y-68968720D01*
X101492025Y-68742706D01*
X101538593Y-68685963D01*
X101654603Y-68544603D01*
X101801101Y-68424376D01*
X101852706Y-68382025D01*
X102078720Y-68261218D01*
X102323960Y-68186825D01*
X102419528Y-68177412D01*
X102515094Y-68168000D01*
X104142906Y-68168000D01*
X104238472Y-68177412D01*
X104238472Y-68177412D01*
G37*
G36*
X129228472Y-68177412D02*
G01*
X129324040Y-68186825D01*
X129569280Y-68261218D01*
X129795294Y-68382025D01*
X129846899Y-68424376D01*
X129993397Y-68544603D01*
X130109407Y-68685963D01*
X130155975Y-68742706D01*
X130276782Y-68968720D01*
X130351175Y-69213960D01*
X130376294Y-69469000D01*
X130351175Y-69724040D01*
X130276782Y-69969280D01*
X130155975Y-70195294D01*
X130113624Y-70246899D01*
X129993397Y-70393397D01*
X129846899Y-70513624D01*
X129795294Y-70555975D01*
X129569280Y-70676782D01*
X129324040Y-70751175D01*
X129228472Y-70760588D01*
X129132906Y-70770000D01*
X127505094Y-70770000D01*
X127409528Y-70760588D01*
X127313960Y-70751175D01*
X127068720Y-70676782D01*
X126842706Y-70555975D01*
X126791101Y-70513624D01*
X126644603Y-70393397D01*
X126524376Y-70246899D01*
X126482025Y-70195294D01*
X126361218Y-69969280D01*
X126286825Y-69724040D01*
X126261706Y-69469000D01*
X126286825Y-69213960D01*
X126361218Y-68968720D01*
X126482025Y-68742706D01*
X126528593Y-68685963D01*
X126644603Y-68544603D01*
X126791101Y-68424376D01*
X126842706Y-68382025D01*
X127068720Y-68261218D01*
X127313960Y-68186825D01*
X127409528Y-68177412D01*
X127505094Y-68168000D01*
X129132906Y-68168000D01*
X129228472Y-68177412D01*
X129228472Y-68177412D01*
G37*
G36*
X120113479Y-67118926D02*
G01*
X120189395Y-67141955D01*
X120242795Y-67158153D01*
X120361964Y-67221851D01*
X120466423Y-67307577D01*
X120552149Y-67412036D01*
X120615847Y-67531205D01*
X120655074Y-67660522D01*
X120665000Y-67761300D01*
X120665000Y-68336700D01*
X120655074Y-68437478D01*
X120615847Y-68566795D01*
X120552149Y-68685964D01*
X120466423Y-68790422D01*
X120361963Y-68876149D01*
X120242794Y-68939847D01*
X120189393Y-68956046D01*
X120113478Y-68979074D01*
X119979000Y-68992319D01*
X119844521Y-68979074D01*
X119768606Y-68956046D01*
X119715205Y-68939847D01*
X119596036Y-68876149D01*
X119491578Y-68790423D01*
X119405851Y-68685963D01*
X119342153Y-68566794D01*
X119325955Y-68513394D01*
X119302926Y-68437478D01*
X119293000Y-68336697D01*
X119293000Y-67761302D01*
X119302926Y-67660521D01*
X119342152Y-67531209D01*
X119342152Y-67531208D01*
X119376201Y-67467508D01*
X119405852Y-67412035D01*
X119413539Y-67402669D01*
X119491578Y-67307577D01*
X119596037Y-67221851D01*
X119715206Y-67158153D01*
X119768606Y-67141955D01*
X119844522Y-67118926D01*
X119979000Y-67105681D01*
X120113479Y-67118926D01*
X120113479Y-67118926D01*
G37*
G36*
X117343479Y-67118926D02*
G01*
X117419395Y-67141955D01*
X117472795Y-67158153D01*
X117591964Y-67221851D01*
X117696423Y-67307577D01*
X117782149Y-67412036D01*
X117845847Y-67531205D01*
X117885074Y-67660522D01*
X117895000Y-67761300D01*
X117895000Y-68336700D01*
X117885074Y-68437478D01*
X117845847Y-68566795D01*
X117782149Y-68685964D01*
X117696423Y-68790422D01*
X117591963Y-68876149D01*
X117472794Y-68939847D01*
X117419393Y-68956046D01*
X117343478Y-68979074D01*
X117209000Y-68992319D01*
X117074521Y-68979074D01*
X116998606Y-68956046D01*
X116945205Y-68939847D01*
X116826036Y-68876149D01*
X116721578Y-68790423D01*
X116635851Y-68685963D01*
X116572153Y-68566794D01*
X116555955Y-68513394D01*
X116532926Y-68437478D01*
X116523000Y-68336697D01*
X116523000Y-67761302D01*
X116532926Y-67660521D01*
X116572152Y-67531209D01*
X116572152Y-67531208D01*
X116606201Y-67467508D01*
X116635852Y-67412035D01*
X116643539Y-67402669D01*
X116721578Y-67307577D01*
X116826037Y-67221851D01*
X116945206Y-67158153D01*
X116998606Y-67141955D01*
X117074522Y-67118926D01*
X117209000Y-67105681D01*
X117343479Y-67118926D01*
X117343479Y-67118926D01*
G37*
G36*
X114573479Y-67118926D02*
G01*
X114649395Y-67141955D01*
X114702795Y-67158153D01*
X114821964Y-67221851D01*
X114926423Y-67307577D01*
X115012149Y-67412036D01*
X115075847Y-67531205D01*
X115115074Y-67660522D01*
X115125000Y-67761300D01*
X115125000Y-68336700D01*
X115115074Y-68437478D01*
X115075847Y-68566795D01*
X115012149Y-68685964D01*
X114926423Y-68790422D01*
X114821963Y-68876149D01*
X114702794Y-68939847D01*
X114649393Y-68956046D01*
X114573478Y-68979074D01*
X114439000Y-68992319D01*
X114304521Y-68979074D01*
X114228606Y-68956046D01*
X114175205Y-68939847D01*
X114056036Y-68876149D01*
X113951578Y-68790423D01*
X113865851Y-68685963D01*
X113802153Y-68566794D01*
X113785955Y-68513394D01*
X113762926Y-68437478D01*
X113753000Y-68336697D01*
X113753000Y-67761302D01*
X113762926Y-67660521D01*
X113802152Y-67531209D01*
X113802152Y-67531208D01*
X113836201Y-67467508D01*
X113865852Y-67412035D01*
X113873539Y-67402669D01*
X113951578Y-67307577D01*
X114056037Y-67221851D01*
X114175206Y-67158153D01*
X114228606Y-67141955D01*
X114304522Y-67118926D01*
X114439000Y-67105681D01*
X114573479Y-67118926D01*
X114573479Y-67118926D01*
G37*
G36*
X111803479Y-67118926D02*
G01*
X111879395Y-67141955D01*
X111932795Y-67158153D01*
X112051964Y-67221851D01*
X112156423Y-67307577D01*
X112242149Y-67412036D01*
X112305847Y-67531205D01*
X112345074Y-67660522D01*
X112355000Y-67761300D01*
X112355000Y-68336700D01*
X112345074Y-68437478D01*
X112305847Y-68566795D01*
X112242149Y-68685964D01*
X112156423Y-68790422D01*
X112051963Y-68876149D01*
X111932794Y-68939847D01*
X111879393Y-68956046D01*
X111803478Y-68979074D01*
X111669000Y-68992319D01*
X111534521Y-68979074D01*
X111458606Y-68956046D01*
X111405205Y-68939847D01*
X111286036Y-68876149D01*
X111181578Y-68790423D01*
X111095851Y-68685963D01*
X111032153Y-68566794D01*
X111015955Y-68513394D01*
X110992926Y-68437478D01*
X110983000Y-68336697D01*
X110983000Y-67761302D01*
X110992926Y-67660521D01*
X111032152Y-67531209D01*
X111032152Y-67531208D01*
X111066201Y-67467508D01*
X111095852Y-67412035D01*
X111103539Y-67402669D01*
X111181578Y-67307577D01*
X111286037Y-67221851D01*
X111405206Y-67158153D01*
X111458606Y-67141955D01*
X111534522Y-67118926D01*
X111669000Y-67105681D01*
X111803479Y-67118926D01*
X111803479Y-67118926D01*
G37*
M02*
