G04 #@! TF.GenerationSoftware,KiCad,Pcbnew,(5.1.4)-1*
G04 #@! TF.CreationDate,2021-11-22T21:05:38+08:00*
G04 #@! TF.ProjectId,CAN-DB9,43414e2d-4442-4392-9e6b-696361645f70,rev?*
G04 #@! TF.SameCoordinates,Original*
G04 #@! TF.FileFunction,Legend,Bot*
G04 #@! TF.FilePolarity,Positive*
%FSLAX46Y46*%
G04 Gerber Fmt 4.6, Leading zero omitted, Abs format (unit mm)*
G04 Created by KiCad (PCBNEW (5.1.4)-1) date 2021-11-22 21:05:38*
%MOMM*%
%LPD*%
G04 APERTURE LIST*
%ADD10C,0.200000*%
G04 APERTURE END LIST*
D10*
X122220857Y-85427428D02*
X122149428Y-85356000D01*
X122006571Y-85284571D01*
X121649428Y-85284571D01*
X121506571Y-85356000D01*
X121435142Y-85427428D01*
X121363714Y-85570285D01*
X121363714Y-85713142D01*
X121435142Y-85927428D01*
X122292285Y-86784571D01*
X121363714Y-86784571D01*
X120435142Y-85284571D02*
X120292285Y-85284571D01*
X120149428Y-85356000D01*
X120078000Y-85427428D01*
X120006571Y-85570285D01*
X119935142Y-85856000D01*
X119935142Y-86213142D01*
X120006571Y-86498857D01*
X120078000Y-86641714D01*
X120149428Y-86713142D01*
X120292285Y-86784571D01*
X120435142Y-86784571D01*
X120578000Y-86713142D01*
X120649428Y-86641714D01*
X120720857Y-86498857D01*
X120792285Y-86213142D01*
X120792285Y-85856000D01*
X120720857Y-85570285D01*
X120649428Y-85427428D01*
X120578000Y-85356000D01*
X120435142Y-85284571D01*
X119363714Y-85427428D02*
X119292285Y-85356000D01*
X119149428Y-85284571D01*
X118792285Y-85284571D01*
X118649428Y-85356000D01*
X118578000Y-85427428D01*
X118506571Y-85570285D01*
X118506571Y-85713142D01*
X118578000Y-85927428D01*
X119435142Y-86784571D01*
X118506571Y-86784571D01*
X117078000Y-86784571D02*
X117935142Y-86784571D01*
X117506571Y-86784571D02*
X117506571Y-85284571D01*
X117649428Y-85498857D01*
X117792285Y-85641714D01*
X117935142Y-85713142D01*
X116435142Y-86641714D02*
X116363714Y-86713142D01*
X116435142Y-86784571D01*
X116506571Y-86713142D01*
X116435142Y-86641714D01*
X116435142Y-86784571D01*
X114935142Y-86784571D02*
X115792285Y-86784571D01*
X115363714Y-86784571D02*
X115363714Y-85284571D01*
X115506571Y-85498857D01*
X115649428Y-85641714D01*
X115792285Y-85713142D01*
X113506571Y-86784571D02*
X114363714Y-86784571D01*
X113935142Y-86784571D02*
X113935142Y-85284571D01*
X114078000Y-85498857D01*
X114220857Y-85641714D01*
X114363714Y-85713142D01*
X112863714Y-86641714D02*
X112792285Y-86713142D01*
X112863714Y-86784571D01*
X112935142Y-86713142D01*
X112863714Y-86641714D01*
X112863714Y-86784571D01*
X112220857Y-85427428D02*
X112149428Y-85356000D01*
X112006571Y-85284571D01*
X111649428Y-85284571D01*
X111506571Y-85356000D01*
X111435142Y-85427428D01*
X111363714Y-85570285D01*
X111363714Y-85713142D01*
X111435142Y-85927428D01*
X112292285Y-86784571D01*
X111363714Y-86784571D01*
X110792285Y-85427428D02*
X110720857Y-85356000D01*
X110578000Y-85284571D01*
X110220857Y-85284571D01*
X110078000Y-85356000D01*
X110006571Y-85427428D01*
X109935142Y-85570285D01*
X109935142Y-85713142D01*
X110006571Y-85927428D01*
X110863714Y-86784571D01*
X109935142Y-86784571D01*
X118824000Y-82998571D02*
X118324000Y-84498571D01*
X117824000Y-82998571D01*
X117324000Y-83712857D02*
X116824000Y-83712857D01*
X116609714Y-84498571D02*
X117324000Y-84498571D01*
X117324000Y-82998571D01*
X116609714Y-82998571D01*
X115109714Y-84498571D02*
X115609714Y-83784285D01*
X115966857Y-84498571D02*
X115966857Y-82998571D01*
X115395428Y-82998571D01*
X115252571Y-83070000D01*
X115181142Y-83141428D01*
X115109714Y-83284285D01*
X115109714Y-83498571D01*
X115181142Y-83641428D01*
X115252571Y-83712857D01*
X115395428Y-83784285D01*
X115966857Y-83784285D01*
X114466857Y-84355714D02*
X114395428Y-84427142D01*
X114466857Y-84498571D01*
X114538285Y-84427142D01*
X114466857Y-84355714D01*
X114466857Y-84498571D01*
X114466857Y-83570000D02*
X114395428Y-83641428D01*
X114466857Y-83712857D01*
X114538285Y-83641428D01*
X114466857Y-83570000D01*
X114466857Y-83712857D01*
X113466857Y-82998571D02*
X113324000Y-82998571D01*
X113181142Y-83070000D01*
X113109714Y-83141428D01*
X113038285Y-83284285D01*
X112966857Y-83570000D01*
X112966857Y-83927142D01*
X113038285Y-84212857D01*
X113109714Y-84355714D01*
X113181142Y-84427142D01*
X113324000Y-84498571D01*
X113466857Y-84498571D01*
X113609714Y-84427142D01*
X113681142Y-84355714D01*
X113752571Y-84212857D01*
X113824000Y-83927142D01*
X113824000Y-83570000D01*
X113752571Y-83284285D01*
X113681142Y-83141428D01*
X113609714Y-83070000D01*
X113466857Y-82998571D01*
X120915285Y-75481571D02*
X120915285Y-73981571D01*
X120558142Y-73981571D01*
X120343857Y-74053000D01*
X120201000Y-74195857D01*
X120129571Y-74338714D01*
X120058142Y-74624428D01*
X120058142Y-74838714D01*
X120129571Y-75124428D01*
X120201000Y-75267285D01*
X120343857Y-75410142D01*
X120558142Y-75481571D01*
X120915285Y-75481571D01*
X118915285Y-74695857D02*
X118701000Y-74767285D01*
X118629571Y-74838714D01*
X118558142Y-74981571D01*
X118558142Y-75195857D01*
X118629571Y-75338714D01*
X118701000Y-75410142D01*
X118843857Y-75481571D01*
X119415285Y-75481571D01*
X119415285Y-73981571D01*
X118915285Y-73981571D01*
X118772428Y-74053000D01*
X118701000Y-74124428D01*
X118629571Y-74267285D01*
X118629571Y-74410142D01*
X118701000Y-74553000D01*
X118772428Y-74624428D01*
X118915285Y-74695857D01*
X119415285Y-74695857D01*
X117843857Y-75481571D02*
X117558142Y-75481571D01*
X117415285Y-75410142D01*
X117343857Y-75338714D01*
X117201000Y-75124428D01*
X117129571Y-74838714D01*
X117129571Y-74267285D01*
X117201000Y-74124428D01*
X117272428Y-74053000D01*
X117415285Y-73981571D01*
X117701000Y-73981571D01*
X117843857Y-74053000D01*
X117915285Y-74124428D01*
X117986714Y-74267285D01*
X117986714Y-74624428D01*
X117915285Y-74767285D01*
X117843857Y-74838714D01*
X117701000Y-74910142D01*
X117415285Y-74910142D01*
X117272428Y-74838714D01*
X117201000Y-74767285D01*
X117129571Y-74624428D01*
X116486714Y-74910142D02*
X115343857Y-74910142D01*
X113772428Y-75338714D02*
X113843857Y-75410142D01*
X114058142Y-75481571D01*
X114201000Y-75481571D01*
X114415285Y-75410142D01*
X114558142Y-75267285D01*
X114629571Y-75124428D01*
X114701000Y-74838714D01*
X114701000Y-74624428D01*
X114629571Y-74338714D01*
X114558142Y-74195857D01*
X114415285Y-74053000D01*
X114201000Y-73981571D01*
X114058142Y-73981571D01*
X113843857Y-74053000D01*
X113772428Y-74124428D01*
X113201000Y-75053000D02*
X112486714Y-75053000D01*
X113343857Y-75481571D02*
X112843857Y-73981571D01*
X112343857Y-75481571D01*
X111843857Y-75481571D02*
X111843857Y-73981571D01*
X110986714Y-75481571D01*
X110986714Y-73981571D01*
M02*
