M48
; DRILL file {KiCad (5.1.4)-1} date 2021/11/22 星期一 21:05:34
; FORMAT={-:-/ absolute / metric / decimal}
; #@! TF.CreationDate,2021-11-22T21:05:34+08:00
; #@! TF.GenerationSoftware,Kicad,Pcbnew,(5.1.4)-1
; #@! TF.FileFunction,Plated,1,2,PTH
FMAT,2
METRIC
T1C0.800
T2C1.000
T3C1.016
T4C1.200
T5C2.000
%
G90
G05
T1
X103.124Y-77.343
X103.124Y-84.963
T3
X110.284Y-70.889
X111.669Y-68.049
X113.054Y-70.889
X114.439Y-68.049
X115.824Y-70.889
X117.209Y-68.049
X118.594Y-70.889
X119.979Y-68.049
X121.364Y-70.889
T4
X112.014Y-79.756
X115.824Y-79.756
X119.634Y-79.756
T5
X128.651Y-77.724
X128.651Y-84.836
T2
G00X104.416Y-69.469
M15
G01X102.242Y-69.469
M16
G05
G00X129.406Y-69.469
M15
G01X127.231Y-69.469
M16
G05
T0
M30
