G04 #@! TF.GenerationSoftware,KiCad,Pcbnew,(5.1.4)-1*
G04 #@! TF.CreationDate,2021-11-22T21:05:38+08:00*
G04 #@! TF.ProjectId,CAN-DB9,43414e2d-4442-4392-9e6b-696361645f70,rev?*
G04 #@! TF.SameCoordinates,Original*
G04 #@! TF.FileFunction,Copper,L1,Top*
G04 #@! TF.FilePolarity,Positive*
%FSLAX46Y46*%
G04 Gerber Fmt 4.6, Leading zero omitted, Abs format (unit mm)*
G04 Created by KiCad (PCBNEW (5.1.4)-1) date 2021-11-22 21:05:38*
%MOMM*%
%LPD*%
G04 APERTURE LIST*
%ADD10O,1.600000X1.600000*%
%ADD11R,1.600000X1.600000*%
%ADD12R,0.762000X0.812800*%
%ADD13C,4.000000*%
%ADD14O,1.270000X1.778000*%
%ADD15O,4.000000X2.500000*%
%ADD16R,1.270000X1.778000*%
%ADD17O,1.800000X3.600000*%
%ADD18C,0.100000*%
%ADD19C,1.800000*%
%ADD20C,0.508000*%
G04 APERTURE END LIST*
D10*
X103124000Y-77343000D03*
D11*
X103124000Y-84963000D03*
D12*
X106426000Y-74549000D03*
X104902000Y-74549000D03*
X103378000Y-74549000D03*
X101854000Y-74549000D03*
D13*
X128651000Y-84836000D03*
X128651000Y-77724000D03*
D14*
X119979000Y-68049000D03*
X117209000Y-68049000D03*
X114439000Y-68049000D03*
X121364000Y-70889000D03*
X118594000Y-70889000D03*
X115824000Y-70889000D03*
X113054000Y-70889000D03*
D15*
X128319000Y-69469000D03*
X103329000Y-69469000D03*
D14*
X111669000Y-68049000D03*
D16*
X110284000Y-70889000D03*
D17*
X119634000Y-79756000D03*
X115824000Y-79756000D03*
D18*
G36*
X112688504Y-77957204D02*
G01*
X112712773Y-77960804D01*
X112736571Y-77966765D01*
X112759671Y-77975030D01*
X112781849Y-77985520D01*
X112802893Y-77998133D01*
X112822598Y-78012747D01*
X112840777Y-78029223D01*
X112857253Y-78047402D01*
X112871867Y-78067107D01*
X112884480Y-78088151D01*
X112894970Y-78110329D01*
X112903235Y-78133429D01*
X112909196Y-78157227D01*
X112912796Y-78181496D01*
X112914000Y-78206000D01*
X112914000Y-81306000D01*
X112912796Y-81330504D01*
X112909196Y-81354773D01*
X112903235Y-81378571D01*
X112894970Y-81401671D01*
X112884480Y-81423849D01*
X112871867Y-81444893D01*
X112857253Y-81464598D01*
X112840777Y-81482777D01*
X112822598Y-81499253D01*
X112802893Y-81513867D01*
X112781849Y-81526480D01*
X112759671Y-81536970D01*
X112736571Y-81545235D01*
X112712773Y-81551196D01*
X112688504Y-81554796D01*
X112664000Y-81556000D01*
X111364000Y-81556000D01*
X111339496Y-81554796D01*
X111315227Y-81551196D01*
X111291429Y-81545235D01*
X111268329Y-81536970D01*
X111246151Y-81526480D01*
X111225107Y-81513867D01*
X111205402Y-81499253D01*
X111187223Y-81482777D01*
X111170747Y-81464598D01*
X111156133Y-81444893D01*
X111143520Y-81423849D01*
X111133030Y-81401671D01*
X111124765Y-81378571D01*
X111118804Y-81354773D01*
X111115204Y-81330504D01*
X111114000Y-81306000D01*
X111114000Y-78206000D01*
X111115204Y-78181496D01*
X111118804Y-78157227D01*
X111124765Y-78133429D01*
X111133030Y-78110329D01*
X111143520Y-78088151D01*
X111156133Y-78067107D01*
X111170747Y-78047402D01*
X111187223Y-78029223D01*
X111205402Y-78012747D01*
X111225107Y-77998133D01*
X111246151Y-77985520D01*
X111268329Y-77975030D01*
X111291429Y-77966765D01*
X111315227Y-77960804D01*
X111339496Y-77957204D01*
X111364000Y-77956000D01*
X112664000Y-77956000D01*
X112688504Y-77957204D01*
X112688504Y-77957204D01*
G37*
D19*
X112014000Y-79756000D03*
D20*
X103124000Y-84963000D02*
X118618000Y-84963000D01*
X119634000Y-83947000D02*
X119634000Y-79756000D01*
X118618000Y-84963000D02*
X119634000Y-83947000D01*
X122809000Y-83947000D02*
X119634000Y-83947000D01*
X128651000Y-84836000D02*
X123698000Y-84836000D01*
X123698000Y-84836000D02*
X122809000Y-83947000D01*
X119634000Y-76708000D02*
X119634000Y-79756000D01*
X123063000Y-73279000D02*
X119634000Y-76708000D01*
X123063000Y-67945000D02*
X123063000Y-73279000D01*
X114439000Y-68049000D02*
X114439000Y-66779000D01*
X114439000Y-66779000D02*
X114427000Y-66767000D01*
X114427000Y-66767000D02*
X114427000Y-65659000D01*
X114427000Y-65659000D02*
X115189000Y-64897000D01*
X115189000Y-64897000D02*
X120015000Y-64897000D01*
X120015000Y-64897000D02*
X123063000Y-67945000D01*
X113054000Y-73128000D02*
X113054000Y-70889000D01*
X106426000Y-74549000D02*
X111633000Y-74549000D01*
X111633000Y-74549000D02*
X113054000Y-73128000D01*
X112014000Y-74930000D02*
X111633000Y-74549000D01*
X112014000Y-79756000D02*
X112014000Y-74930000D01*
X103378000Y-74549000D02*
X104902000Y-74549000D01*
X103124000Y-77343000D02*
X101854000Y-76073000D01*
X101854000Y-76073000D02*
X101854000Y-74549000D01*
M02*
